<?xml version="1.0" encoding="UTF-8"?>
<svg id="Munich" xmlns="http://www.w3.org/2000/svg" version="1.1" viewBox="0 0 367.2 343.1">
  <!-- Generator: Adobe Illustrator 29.1.0, SVG Export Plug-In . SVG Version: 2.1.0 Build 142)  -->
  <defs>
    <style>
      .st0, .st1 {
        fill: #f26739;
      }

      .st2 {
        fill: #fff;
      }

      .st2, .st3, .st1, .st4 {
        stroke: #f26739;
        stroke-width: 1.2px;
      }

      .st2, .st1, .st4 {
        stroke-miterlimit: 10;
      }

      .st3 {
        stroke-linecap: round;
        stroke-linejoin: round;
      }

      .st3, .st4 {
        fill: none;
      }
    </style>
  </defs>
  <path class="st3" d="M354.2,154.3h-1.5v-2.2c0-12.5-10.2-22.7-22.7-22.7-10,0-18.8,6.6-21.7,16.1l-.5,1.6-1.5-.7c-6.3-3-13.8-.3-16.8,6-1.5,3.1-1.6,6.7-.4,9.9l.8,2.1-2.4-.2h-.2c-4.2,0-7.6,3.4-7.6,7.6,0,4.2,3.4,7.6,7.6,7.6h66.8c7-.2,12.5-6,12.3-12.9-.2-6.7-5.6-12.1-12.3-12.3h.1Z"/>
  <rect class="st4" x="254.8" y="56.8" width="31.7" height="13.4"/>
  <polygon class="st4" points="286.5 85.5 257.9 85.5 254.8 85.5 254.8 80.8 267 80.8 286.5 80.8 286.5 85.5"/>
  <polygon class="st4" points="286.5 104.6 257.7 104.6 256.5 104.6 254.8 104.6 254.8 99.9 258.3 99.9 286.5 99.9 286.5 104.6"/>
  <rect class="st4" x="254.8" y="90.5" width="31.7" height="4.7"/>
  <g>
    <polygon class="st4" points="270.9 0 269.8 19.4 271.9 19.4 270.9 0"/>
    <polygon class="st4" points="272.1 23.9 269.6 23.9 269.4 27.1 272.3 27.1 272.1 23.9"/>
    <polygon class="st4" points="267.8 56.2 267.6 56.8 273.8 56.8 273.8 56.1 273.2 45.6 268.4 45.6 267.8 56.2"/>
    <polygon class="st4" points="272.5 31.6 269.1 31.6 268.6 41.1 273 41.1 272.5 31.6"/>
    <polygon class="st4" points="271.9 19.4 269.8 19.4 265.6 19.4 265.6 23.9 269.6 23.9 272.1 23.9 275.7 23.9 275.7 19.4 271.9 19.4"/>
    <polygon class="st4" points="272.3 27.1 269.4 27.1 265.6 27.1 265.6 31.6 269.1 31.6 272.5 31.6 275.7 31.6 275.7 27.1 272.3 27.1"/>
    <polygon class="st4" points="273 41.1 268.6 41.1 260.1 41.1 260.1 45.6 268.4 45.6 273.2 45.6 281.3 45.6 281.3 41.1 273 41.1"/>
  </g>
  <polygon class="st4" points="267.2 75.1 274.5 75.1 274.8 80.8 267 80.6 267.2 75.1"/>
  <path class="st4" d="M267.1,74.9s-.8-4.8-12.2-4.7"/>
  <path class="st4" d="M274.5,75s.8-4.8,12.2-4.7"/>
  <rect class="st4" x="107.3" y="105.5" width="38.8" height="20.7"/>
  <line class="st4" x1="107.2" y1="108.7" x2="146.2" y2="108.7"/>
  <polygon class="st4" points="146.2 126.2 107.5 126.2 105.9 129.5 105.8 129.7 105.8 155.3 147.6 155.3 147.6 129.7 146.2 126.2"/>
  <line class="st4" x1="147.8" y1="129.8" x2="106.1" y2="129.8"/>
  <g>
    <rect class="st4" x="110.6" y="134.2" width="3.9" height="14.3"/>
    <rect class="st4" x="118.3" y="134.2" width="3.9" height="14.3"/>
    <rect class="st4" x="131.2" y="134.2" width="3.9" height="14.3"/>
    <rect class="st4" x="138.9" y="134.2" width="3.9" height="14.3"/>
  </g>
  <line class="st4" x1="104.1" y1="159.4" x2="149.2" y2="159.4"/>
  <circle class="st4" cx="113.7" cy="173.7" r="4.1"/>
  <circle class="st4" cx="125.5" cy="173.7" r="4.1"/>
  <g>
    <path class="st0" d="M113,112.9v5.8h-2.1v-5.8h2.1M114.2,111.6h-4.6v8.3h4.6v-8.3h0Z"/>
    <path class="st0" d="M118.9,112.9v5.8h-2.1v-5.8h2.1M120.2,111.6h-4.6v8.3h4.6v-8.3h0Z"/>
    <path class="st0" d="M124.8,112.9v5.8h-2.1v-5.8h2.1M126.1,111.6h-4.6v8.3h4.6v-8.3h0Z"/>
    <path class="st0" d="M130.8,112.9v5.8h-2.1v-5.8h2.1M132,111.6h-4.6v8.3h4.6v-8.3h0Z"/>
    <path class="st0" d="M136.7,112.9v5.8h-2.1v-5.8h2.1M138,111.6h-4.6v8.3h4.6v-8.3h0Z"/>
    <path class="st0" d="M142.7,112.9v5.8h-2.1v-5.8h2.1M143.9,111.6h-4.6v8.3h4.6v-8.3h0Z"/>
  </g>
  <circle class="st4" cx="126.7" cy="71.3" r="2.2"/>
  <polyline class="st4" points="125.4 78.2 125.6 73.3 127.7 73.3 128 78"/>
  <g>
    <polygon class="st4" points="84.5 265.7 84.7 265.7 49.1 265.6 49.1 342.6 84.8 342.6 84.8 265.7 84.5 265.7"/>
    <polyline class="st4" points="119.4 194.2 154.6 194.2 154.6 186.8 149.3 182 149.3 187.6 104.1 187.6 104.1 181.3 53.3 181.3 49.1 185.7 49.1 270.6"/>
    <polygon class="st4" points="147.5 155.3 105.9 155.4 104.1 158.8 104.1 159.8 104.1 181.3 104.1 187.6 149.3 187.6 149.3 182 149.3 159 147.5 155.3"/>
    <g>
      <polygon class="st0" points="84.7 265.2 84.5 265.7 84.8 265.7 84.8 265.2 84.7 265.2"/>
      <polygon class="st0" points="84.7 265.2 84.5 265.7 84.8 265.7 84.8 265.2 84.7 265.2 84.7 265.2"/>
    </g>
    <g>
      <rect class="st4" x="126.9" y="240.9" width="9.7" height="9.7"/>
      <rect class="st4" x="142" y="217.3" width="8.3" height="8.3"/>
      <polygon class="st4" points="151.6 240.9 151.6 250.6 154.6 250.6 161.2 250.6 161.2 240.9 154.6 240.9 151.6 240.9"/>
      <rect class="st4" x="176.3" y="240.9" width="9.7" height="9.7"/>
      <rect class="st4" x="119.5" y="217.3" width="8.3" height="8.3"/>
      <polyline class="st4" points="282 250.6 284.8 250.6 284.8 240.9 281.7 240.9"/>
      <polyline class="st4" points="261.4 217.3 254.9 217.3 254.9 225.6 261.1 225.6"/>
      <rect class="st4" x="102.2" y="240.9" width="9.7" height="9.7"/>
      <polyline class="st4" points="281.1 225.6 285.8 225.6 285.8 217.3 280.8 217.3"/>
      <rect class="st4" x="164.6" y="217.3" width="8.3" height="8.3"/>
      <rect class="st4" x="232.3" y="217.3" width="8.3" height="8.3"/>
      <rect class="st4" x="187.2" y="217.3" width="8.3" height="8.3"/>
      <rect class="st4" x="250.4" y="240.9" width="9.7" height="9.7"/>
      <rect class="st4" x="201" y="240.9" width="9.7" height="9.7"/>
      <rect class="st4" x="225.7" y="240.9" width="9.7" height="9.7"/>
      <rect class="st4" x="209.8" y="217.3" width="8.3" height="8.3"/>
      <path class="st0" d="M263.7,105.7h13.7c-1.6,1-2,2.4-2,3.2l3.2,84.5h-15.1c2.8-83.1,2.6-84.2,2.6-84.6-.1-1.2-1.1-2.3-2.4-3.1M257.4,104.4s7.1,1.9,7.4,4.5c.1,1.1-1.1,39.9-2.6,85.7h17.7l-3.3-85.8s0-1.5,2-2.3,5.7-2,5.7-2l-27-.2h0Z"/>
      <path class="st4" d="M279.9,194.2H119.4l-34.7,70.9h0v.5l174.9.2h22.9s50.7,0,50.7,0l-53.4-71.7h0M111.8,250.6h-9.7v-9.7h9.7v9.7ZM119.5,217.3h8.3v8.3h-8.3v-8.3ZM136.5,250.6h-9.7v-9.7h9.7v9.7ZM150.3,225.6h-8.3v-8.3h8.3v8.3ZM161.2,250.6h-9.7v-9.7h9.7v9.7ZM172.9,225.6h-8.3v-8.3h8.3v8.3ZM185.9,250.6h-9.7v-9.7h9.7v9.7ZM195.5,225.6h-8.3v-8.3h8.3v8.3ZM210.7,250.6h-9.7v-9.7h9.7v9.7ZM218.1,225.6h-8.3v-8.3h8.3v8.3ZM235.4,250.6h-9.7v-9.7h9.7v9.7ZM240.6,225.6h-8.3v-8.3h8.3v8.3ZM250.4,250.6v-9.7h9.7v9.7h-9.7ZM263.2,225.6h-8.3v-8.3h8.3v8.3ZM284.8,250.6h-9.7v-9.7h9.7v9.7ZM281.1,225.6h-3.6v-8.3h8.3v8.3h-4.7Z"/>
    </g>
    <g>
      <polygon class="st0" points="84.8 265.1 84.7 265.1 84.7 265.2 84.8 265.2 84.8 265.1"/>
      <polygon class="st0" points="84.8 265.1 84.7 265.1 84.7 265.2 84.8 265.2 84.8 265.1 84.8 265.1"/>
    </g>
  </g>
  <g>
    <g>
      <path class="st4" d="M308.4,342.5v-46.9c-.1,0,4.2-12.7,5.1-13.9s2.5-3.9,4.6,0,5.1,13.9,5.1,13.9v46.9"/>
      <line class="st4" x1="316" y1="279.8" x2="316" y2="342.5"/>
      <line class="st4" x1="308.4" y1="295.8" x2="323.4" y2="295.8"/>
      <line class="st4" x1="308.4" y1="302.6" x2="323.4" y2="302.6"/>
      <line class="st4" x1="308.4" y1="309.2" x2="323.4" y2="309.2"/>
      <line class="st4" x1="308.4" y1="316" x2="323.4" y2="316"/>
      <line class="st4" x1="308.5" y1="322.8" x2="323.5" y2="322.8"/>
      <line class="st4" x1="308.5" y1="329.6" x2="323.5" y2="329.6"/>
      <line class="st4" x1="308.5" y1="336.2" x2="323.5" y2="336.2"/>
    </g>
    <g>
      <path class="st4" d="M281.5,342.5v-46.9c-.1,0,4.2-12.7,5.1-13.9s2.5-3.9,4.6,0,5.1,13.9,5.1,13.9v46.9"/>
      <line class="st4" x1="289.1" y1="279.8" x2="289.1" y2="342.5"/>
      <line class="st4" x1="281.5" y1="295.8" x2="296.4" y2="295.8"/>
      <line class="st4" x1="281.5" y1="302.6" x2="296.4" y2="302.6"/>
      <line class="st4" x1="281.5" y1="309.2" x2="296.4" y2="309.2"/>
      <line class="st4" x1="281.5" y1="316" x2="296.4" y2="316"/>
      <line class="st4" x1="281.6" y1="322.8" x2="296.6" y2="322.8"/>
      <line class="st4" x1="281.6" y1="329.6" x2="296.6" y2="329.6"/>
      <line class="st4" x1="281.6" y1="336.2" x2="296.6" y2="336.2"/>
    </g>
    <g>
      <path class="st4" d="M254.6,342.5v-46.9c-.1,0,4.2-12.7,5.1-13.9s2.5-3.9,4.6,0c1.9,3.6,5.1,13.9,5.1,13.9v46.9"/>
      <line class="st4" x1="262.2" y1="279.8" x2="262.2" y2="342.5"/>
      <line class="st4" x1="254.5" y1="295.8" x2="269.5" y2="295.8"/>
      <line class="st4" x1="254.5" y1="302.6" x2="269.5" y2="302.6"/>
      <line class="st4" x1="254.5" y1="309.2" x2="269.5" y2="309.2"/>
      <line class="st4" x1="254.5" y1="316" x2="269.5" y2="316"/>
      <line class="st4" x1="254.7" y1="322.8" x2="269.6" y2="322.8"/>
      <line class="st4" x1="254.7" y1="329.6" x2="269.6" y2="329.6"/>
      <line class="st4" x1="254.7" y1="336.2" x2="269.6" y2="336.2"/>
    </g>
    <g>
      <path class="st4" d="M227.7,342.5v-46.9c-.1,0,4.2-12.7,5.1-13.9s2.5-3.9,4.6,0,5.1,13.9,5.1,13.9v46.9"/>
      <line class="st4" x1="235.3" y1="279.8" x2="235.3" y2="342.5"/>
      <line class="st4" x1="227.6" y1="295.8" x2="242.6" y2="295.8"/>
      <line class="st4" x1="227.6" y1="302.6" x2="242.6" y2="302.6"/>
      <line class="st4" x1="227.6" y1="309.2" x2="242.6" y2="309.2"/>
      <line class="st4" x1="227.6" y1="316" x2="242.6" y2="316"/>
      <line class="st4" x1="227.7" y1="322.8" x2="242.7" y2="322.8"/>
      <line class="st4" x1="227.7" y1="329.6" x2="242.7" y2="329.6"/>
      <line class="st4" x1="227.7" y1="336.2" x2="242.7" y2="336.2"/>
    </g>
    <g>
      <path class="st4" d="M200.7,342.5v-46.9c-.1,0,4.2-12.7,5.1-13.9s2.5-3.9,4.6,0c1.9,3.6,5.1,13.9,5.1,13.9v46.9"/>
      <line class="st4" x1="208.3" y1="279.8" x2="208.3" y2="342.5"/>
      <line class="st4" x1="200.7" y1="295.8" x2="215.7" y2="295.8"/>
      <line class="st4" x1="200.7" y1="302.6" x2="215.7" y2="302.6"/>
      <line class="st4" x1="200.7" y1="309.2" x2="215.7" y2="309.2"/>
      <line class="st4" x1="200.7" y1="316" x2="215.7" y2="316"/>
      <line class="st4" x1="200.8" y1="322.8" x2="215.8" y2="322.8"/>
      <line class="st4" x1="200.8" y1="329.6" x2="215.8" y2="329.6"/>
      <line class="st4" x1="200.8" y1="336.2" x2="215.8" y2="336.2"/>
    </g>
    <g>
      <path class="st4" d="M173.8,342.5v-46.9c-.1,0,4.2-12.7,5.1-13.9s2.5-3.9,4.6,0c1.9,3.6,5.1,13.9,5.1,13.9v46.9"/>
      <line class="st4" x1="181.4" y1="279.8" x2="181.4" y2="342.5"/>
      <line class="st4" x1="173.8" y1="295.8" x2="188.7" y2="295.8"/>
      <line class="st4" x1="173.8" y1="302.6" x2="188.7" y2="302.6"/>
      <line class="st4" x1="173.8" y1="309.2" x2="188.7" y2="309.2"/>
      <line class="st4" x1="173.8" y1="316" x2="188.7" y2="316"/>
      <line class="st4" x1="173.9" y1="322.8" x2="188.9" y2="322.8"/>
      <line class="st4" x1="173.9" y1="329.6" x2="188.9" y2="329.6"/>
      <line class="st4" x1="173.9" y1="336.2" x2="188.9" y2="336.2"/>
    </g>
    <g>
      <path class="st4" d="M146.9,342.5v-46.9c-.1,0,4.2-12.7,5.1-13.9s2.5-3.9,4.6,0c1.9,3.6,5.1,13.9,5.1,13.9v46.9"/>
      <line class="st4" x1="154.5" y1="279.8" x2="154.5" y2="342.5"/>
      <line class="st4" x1="146.8" y1="295.8" x2="161.8" y2="295.8"/>
      <line class="st4" x1="146.8" y1="302.6" x2="161.8" y2="302.6"/>
      <line class="st4" x1="146.8" y1="309.2" x2="161.8" y2="309.2"/>
      <line class="st4" x1="146.8" y1="316" x2="161.8" y2="316"/>
      <line class="st4" x1="147" y1="322.8" x2="161.9" y2="322.8"/>
      <line class="st4" x1="147" y1="329.6" x2="161.9" y2="329.6"/>
      <line class="st4" x1="147" y1="336.2" x2="161.9" y2="336.2"/>
    </g>
    <g>
      <path class="st4" d="M120,342.5v-46.9c-.1,0,4.2-12.7,5.1-13.9s2.5-3.9,4.6,0c1.9,3.6,5.1,13.9,5.1,13.9v46.9"/>
      <line class="st4" x1="127.5" y1="279.8" x2="127.5" y2="342.5"/>
      <line class="st4" x1="119.9" y1="295.8" x2="134.9" y2="295.8"/>
      <line class="st4" x1="119.9" y1="302.6" x2="134.9" y2="302.6"/>
      <line class="st4" x1="119.9" y1="309.2" x2="134.9" y2="309.2"/>
      <line class="st4" x1="119.9" y1="316" x2="134.9" y2="316"/>
      <line class="st4" x1="120" y1="322.8" x2="135" y2="322.8"/>
      <line class="st4" x1="120" y1="329.6" x2="135" y2="329.6"/>
      <line class="st4" x1="120" y1="336.2" x2="135" y2="336.2"/>
    </g>
    <g>
      <path class="st4" d="M93,342.5v-46.9c-.1,0,4.2-12.7,5.1-13.9s2.5-3.9,4.6,0c1.9,3.6,5.1,13.9,5.1,13.9v46.9"/>
      <line class="st4" x1="100.6" y1="279.8" x2="100.6" y2="342.5"/>
      <line class="st4" x1="93" y1="295.8" x2="108" y2="295.8"/>
      <line class="st4" x1="93" y1="302.6" x2="108" y2="302.6"/>
      <line class="st4" x1="93" y1="309.2" x2="108" y2="309.2"/>
      <line class="st4" x1="93" y1="316" x2="108" y2="316"/>
      <line class="st4" x1="93.1" y1="322.8" x2="108.1" y2="322.8"/>
      <line class="st4" x1="93.1" y1="329.6" x2="108.1" y2="329.6"/>
      <line class="st4" x1="93.1" y1="336.2" x2="108.1" y2="336.2"/>
    </g>
  </g>
  <line class="st4" x1="57.5" y1="102.3" x2="96.1" y2="102.3"/>
  <line class="st4" x1="98.1" y1="123.4" x2="56.4" y2="123.4"/>
  <g>
    <rect class="st4" x="60.8" y="127.8" width="3.9" height="14.3"/>
    <rect class="st4" x="68.5" y="127.8" width="3.9" height="14.3"/>
    <rect class="st4" x="81.5" y="127.8" width="3.9" height="14.3"/>
    <rect class="st4" x="89.2" y="127.8" width="3.9" height="14.3"/>
  </g>
  <path class="st4" d="M86.3,149h11.4s-11.4,0-11.4,0c0,0,0,0,0,0Z"/>
  <path class="st3" d="M54.3,152.4l1.9-3.4h30.1c0,0,0,0,0,0h-30.3v-25.8c0,0,1.7-3.3,1.7-3.3h-.2v-15.5c-1.6-.4-3.2-.6-4.9-.6-10,0-18.8,6.6-21.7,16.1l-.5,1.6-1.5-.7c-6.3-3-13.8-.3-16.8,6-1.5,3.1-1.6,6.7-.4,9.9l.8,2.1-2.4-.2h-.2c-4.2,0-7.6,3.4-7.6,7.6,0,4.2,3.4,7.6,7.6,7.6h44.3v-1.3Z"/>
  <path class="st3" d="M241.5,72.5c-.3-13-10.8-23.4-23.7-23.7h.2c0,0-2.9,0-2.9,0v-4.2c0-24.2-19.6-43.7-43.8-43.8-19.3,0-36.2,12.7-41.9,31.1l-.9,3.1-3-1.4c-12.2-5.7-26.7-.5-32.4,11.7-2.8,6-3.1,12.9-.7,19.1l1.6,4.1-4.7-.3h-.4c-3.7,0-7,1.4-9.6,3.6,23.4,5,19.8,20.9,18.2,25.6h8c.1-18.9,19.1-19.3,19.1-19.3h3.9c17.1,3.4,20.2,12.6,20,19.3h69.4c13.4-.3,24-11.5,23.7-24.9Z"/>
  <path class="st4" d="M128.4,78.1h-3.9s-18.9.4-19.1,19.3c0,2.2.8,5.3,1.4,8l39.4.2s2.1-3.8,2.2-8.2c.2-6.7-2.8-15.8-20-19.3Z"/>
  <path class="st4" d="M79.3,71.8c-.2,0-.4,0-.6-.1h-3.9s-23.6.8-18.3,26.9h1.2s0,0,0,0h18.8c0,.1,20.5.2,20.5.2,0,0,.2-.5.5-1.3,1.6-4.6,5.3-20.5-18.2-25.6Z"/>
  <polygon class="st4" points="76.4 98.6 57.6 98.6 57.6 104.3 57.6 119.8 57.8 119.8 74.4 119.8 96.4 119.8 96.4 98.7 76.4 98.6"/>
  <polygon class="st1" points="57.6 98.6 76.4 98.6 57.6 98.5 57.6 98.6"/>
  <polygon class="st4" points="96.4 119.8 96.4 119.8 74.4 119.8 57.8 119.8 56.2 123.1 56.1 123.3 56.1 148.9 86.3 148.9 97.8 148.9 97.8 148.9 97.8 123.3 96.4 119.8"/>
  <polygon class="st4" points="97.8 148.9 86.3 149 56.2 149 54.3 152.4 54.3 153.4 54.3 153.7 54.3 181.2 99.6 181.2 99.6 152.6 97.8 148.9"/>
  <line class="st4" x1="54.3" y1="153" x2="99.5" y2="153"/>
  <circle class="st4" cx="64" cy="167.3" r="4.1"/>
  <circle class="st4" cx="75.7" cy="167.3" r="4.1"/>
  <g>
    <path class="st0" d="M63.2,106.4v5.8h-2.1v-5.8h2.1M64.5,105.2h-4.6v8.3h4.6v-8.3h0Z"/>
    <path class="st0" d="M69.2,106.4v5.8h-2.1v-5.8h2.1M70.4,105.2h-4.6v8.3h4.6v-8.3h0Z"/>
    <path class="st0" d="M75.1,106.4v5.8h-2.1v-5.8h2.1M76.4,105.2h-4.6v8.3h4.6v-8.3h0Z"/>
    <path class="st0" d="M81,106.4v5.8h-2.1v-5.8h2.1M82.3,105.2h-4.6v8.3h4.6v-8.3h0Z"/>
    <path class="st0" d="M87,106.4v5.8h-2.1v-5.8h2.1M88.2,105.2h-4.6v8.3h4.6v-8.3h0Z"/>
    <path class="st0" d="M92.9,106.4v5.8h-2.1v-5.8h2.1M94.2,105.2h-4.6v8.3h4.6v-8.3h0Z"/>
  </g>
  <circle class="st4" cx="76.9" cy="64.9" r="2.2"/>
  <polyline class="st4" points="75.6 71.8 75.9 66.9 77.9 66.9 78.2 71.6"/>
  <polyline class="st4" points="84.8 342.6 333.6 342.6 333.6 266"/>
  <polygon class="st4" points="309.1 250.7 306.3 250.7 299.4 250.7 299.4 241 306 241 309.1 241 309.1 250.7"/>
  <line class="st4" x1="96.6" y1="241" x2="314.9" y2="241"/>
  <line class="st4" x1="108.5" y1="217.2" x2="297.3" y2="217.2"/>
  <g>
    <line class="st2" x1="257.9" y1="85.5" x2="257.9" y2="90.7"/>
    <line class="st2" x1="283.4" y1="85.2" x2="283.4" y2="90.6"/>
    <line class="st2" x1="258" y1="95.2" x2="258" y2="100.4"/>
    <line class="st2" x1="283.5" y1="94.9" x2="283.5" y2="100.3"/>
  </g>
</svg>