<svg id="Layer_1" data-name="Layer 1" xmlns="http://www.w3.org/2000/svg" viewBox="0 0 364.88 64.43"><defs><style>.cls-1{fill:#f78100;}.cls-2{fill:#fcad32;}</style></defs><path class="cls-1" d="M157.19,39.38l.45-1.57a5.55,5.55,0,0,0-.56-4.84,4.93,4.93,0,0,0-3.9-1.92l-31.85-.41a.62.62,0,0,1-.57-.84.88.88,0,0,1,.74-.57l32.15-.4a11.48,11.48,0,0,0,9.38-7L164.86,17a1.15,1.15,0,0,0,.08-.41.91.91,0,0,0,0-.23,20.93,20.93,0,0,0-40.25-2.16,9.37,9.37,0,0,0-6.47-1.84,9.46,9.46,0,0,0-8.49,8,9.7,9.7,0,0,0,.19,3.7,13.39,13.39,0,0,0-13,13.38,14,14,0,0,0,.15,2,.61.61,0,0,0,.61.52h58.81A.78.78,0,0,0,157.19,39.38Z"/><path class="cls-2" d="M167.8,17.35c-.3,0-.59,0-.88,0a.32.32,0,0,0-.14,0,.5.5,0,0,0-.32.34l-1.25,4.32a5.54,5.54,0,0,0,.56,4.84,4.93,4.93,0,0,0,3.9,1.93l6.79.4a.61.61,0,0,1,.48.27.65.65,0,0,1,.07.58.83.83,0,0,1-.74.56l-7.05.41a11.46,11.46,0,0,0-9.4,7l-.51,1.33a.37.37,0,0,0,.33.51h24.29a.66.66,0,0,0,.63-.46A17.41,17.41,0,0,0,167.8,17.35Z"/><polygon points="21.19 47.12 25.32 47.12 25.32 58.41 32.55 58.41 32.55 62.03 21.19 62.03 21.19 47.12"/><path d="M36.83,54.62v0a7.82,7.82,0,0,1,8.06-7.76,7.74,7.74,0,0,1,8,7.71v0a7.81,7.81,0,0,1-8,7.75,7.74,7.74,0,0,1-8-7.71m11.85,0v0a3.87,3.87,0,0,0-3.83-4,3.8,3.8,0,0,0-3.78,4v0a3.87,3.87,0,0,0,3.82,4,3.8,3.8,0,0,0,3.79-4"/><path d="M58,55.49V47.11h4.2v8.3c0,2.15,1.09,3.17,2.75,3.17s2.75-1,2.75-3.07v-8.4h4.2v8.28c0,4.81-2.75,6.92-7,6.92S58,60.16,58,55.49"/><path d="M78.19,47.12H84c5.32,0,8.42,3.06,8.42,7.37v0c0,4.31-3.14,7.51-8.51,7.51H78.19ZM84,58.37c2.47,0,4.11-1.37,4.11-3.77v-.05c0-2.38-1.64-3.77-4.11-3.77H82.33v7.59Z"/><polygon points="98.38 47.12 110.31 47.12 110.31 50.74 102.51 50.74 102.51 53.27 109.57 53.27 109.57 56.71 102.51 56.71 102.51 62.03 98.38 62.03 98.38 47.12"/><polygon points="116.07 47.12 120.2 47.12 120.2 58.41 127.43 58.41 127.43 62.03 116.07 62.03 116.07 47.12"/><path d="M138.23,47h4l6.35,15h-4.43l-1.09-2.67h-5.76L136.23,62h-4.35Zm3.63,9.14-1.67-4.24-1.68,4.24Z"/><path d="M153.9,47.11h7a6.53,6.53,0,0,1,4.86,1.62,4.63,4.63,0,0,1,1.32,3.48v0a4.71,4.71,0,0,1-3.06,4.58L167.63,62h-4.78l-3-4.52H158V62H153.9Zm6.86,7.17c1.41,0,2.22-.69,2.22-1.77v0c0-1.18-.85-1.77-2.24-1.77H158v3.58Z"/><polygon points="173.1 47.12 185.1 47.12 185.1 50.63 177.19 50.63 177.19 52.89 184.36 52.89 184.36 56.15 177.19 56.15 177.19 58.52 185.21 58.52 185.21 62.03 173.1 62.03 173.1 47.12"/><path d="M12.13,56.37A3.65,3.65,0,0,1,8.72,58.6a3.87,3.87,0,0,1-3.82-4v0a3.8,3.8,0,0,1,3.77-4A3.74,3.74,0,0,1,12.22,53h4.36a7.78,7.78,0,0,0-7.86-6.2A7.81,7.81,0,0,0,.66,54.57v0a7.74,7.74,0,0,0,8,7.71,7.86,7.86,0,0,0,7.83-6Z"/><rect x="203.97" y="16.6" width="2.13" height="45.48"/><path d="M224.86,34.61V16.73h6.37a7.17,7.17,0,0,1,3.46.75,5,5,0,0,1,2.05,2.08,6.78,6.78,0,0,1,0,5.92,5.06,5.06,0,0,1-2.07,2.08,7,7,0,0,1-3.45.76h-4.38V26H231a4.33,4.33,0,0,0,2.14-.46,2.78,2.78,0,0,0,1.2-1.25,4,4,0,0,0,.39-1.81,4,4,0,0,0-.39-1.79,2.74,2.74,0,0,0-1.21-1.24,4.64,4.64,0,0,0-2.17-.44h-3.39V34.61Z"/><path d="M243,34.61H240.1l6.43-17.88h3.12l6.44,17.88h-2.87L248.16,20H248Zm.48-7h9.29v2.28h-9.29Z"/><path d="M261.07,34.61V16.73h6.37a7.36,7.36,0,0,1,3.45.71,4.76,4.76,0,0,1,2.06,2,6.07,6.07,0,0,1,.68,2.91,6,6,0,0,1-.68,2.89,4.68,4.68,0,0,1-2.07,1.93,7.62,7.62,0,0,1-3.45.69H262.6V25.52h4.59a5.17,5.17,0,0,0,2.13-.38,2.45,2.45,0,0,0,1.21-1.09,3.55,3.55,0,0,0,.39-1.72,3.7,3.7,0,0,0-.39-1.75,2.56,2.56,0,0,0-1.22-1.14,4.93,4.93,0,0,0-2.16-.4h-3.39V34.61Zm8.82-8.07,4.42,8.07h-3.07l-4.33-8.07Z"/><path d="M278.13,19.05V16.73H292v2.32H286.4V34.61h-2.69V19.05Z"/><path d="M311.57,16.73V34.61h-2.48L300,21.49h-.16V34.61h-2.7V16.73h2.5l9.1,13.13h.16V16.73Z"/><path d="M318,34.61V16.73h11.21v2.32h-8.51V24.5h7.93v2.31h-7.93v5.48h8.62v2.32Z"/><path d="M334.77,34.61V16.73h6.37a7.36,7.36,0,0,1,3.45.71,4.76,4.76,0,0,1,2.06,2,6.07,6.07,0,0,1,.68,2.91,6,6,0,0,1-.68,2.89,4.7,4.7,0,0,1-2.06,1.93,7.7,7.7,0,0,1-3.46.69H336.3V25.52h4.59a5.17,5.17,0,0,0,2.13-.38,2.45,2.45,0,0,0,1.21-1.09,3.55,3.55,0,0,0,.39-1.72,3.7,3.7,0,0,0-.39-1.75A2.56,2.56,0,0,0,343,19.44a4.93,4.93,0,0,0-2.16-.4h-3.39V34.61Zm8.82-8.07L348,34.61h-3.07l-4.33-8.07Z"/><path d="M239.29,44.06V62h-2.48l-9.09-13.12h-.17V62h-2.69V44.06h2.49l9.1,13.14h.17V44.06Z"/><path d="M245.69,62V44.06H256.9v2.33h-8.52v5.45h7.93v2.31h-7.93v5.48H257V62Z"/><path d="M262,46.39V44.06H275.8v2.33h-5.58V62h-2.69V46.39Z"/><path d="M285.31,62l-5-17.89h2.84l3.48,13.85h.17l3.62-13.85h2.81l3.63,13.86h.16l3.48-13.86h2.84l-5,17.89H295.7l-3.76-13.4h-.14L288,62Z"/><path d="M323.34,53a10.83,10.83,0,0,1-1,4.92,7.73,7.73,0,0,1-2.87,3.16,8.34,8.34,0,0,1-8.28,0,7.63,7.63,0,0,1-2.87-3.17,10.68,10.68,0,0,1-1-4.91,10.7,10.7,0,0,1,1-4.92,7.69,7.69,0,0,1,2.87-3.17,8.34,8.34,0,0,1,8.28,0,7.76,7.76,0,0,1,2.87,3.17A10.83,10.83,0,0,1,323.34,53Zm-2.67,0a8.57,8.57,0,0,0-.7-3.68,5.22,5.22,0,0,0-1.92-2.27,5.27,5.27,0,0,0-5.52,0,5.2,5.2,0,0,0-1.91,2.27,9.89,9.89,0,0,0,0,7.36A5.25,5.25,0,0,0,312.53,59a5.33,5.33,0,0,0,5.52,0A5.27,5.27,0,0,0,320,56.69,8.63,8.63,0,0,0,320.67,53Z"/><path d="M329.11,62V44.06h6.38a7.38,7.38,0,0,1,3.45.72,4.76,4.76,0,0,1,2.06,2,6.07,6.07,0,0,1,.68,2.91,6,6,0,0,1-.68,2.89,4.68,4.68,0,0,1-2.07,1.93,7.62,7.62,0,0,1-3.45.69h-4.83V52.86h4.59a5.17,5.17,0,0,0,2.13-.38,2.49,2.49,0,0,0,1.21-1.09,3.55,3.55,0,0,0,.38-1.72,3.7,3.7,0,0,0-.38-1.75,2.56,2.56,0,0,0-1.22-1.14,4.93,4.93,0,0,0-2.16-.4h-3.39V62Zm8.83-8.07L342.36,62h-3.07L335,53.88Z"/><path d="M347.45,62V44.06h2.7V52.6h.22l7.5-8.54h3.4l-7.22,8.06L361.29,62H358l-5.78-8-2.11,2.43V62Z"/></svg>